<svg width="260" height="48" viewBox="0 0 260 48" fill="none" xmlns="http://www.w3.org/2000/svg">
<path d="M21.1808 34.1579V13.8788H23.9483V25.7486C23.9483 27.7951 23.9114 29.73 23.8376 31.5532H24.059C24.6863 30.1393 25.4982 28.6137 26.7897 26.3067L33.8376 13.8788H37.6384V34.1579H34.8708V22.6602C34.8708 20.837 34.9446 18.6044 35.0554 16.4463H34.834C34.2066 18.0091 33.1365 19.9439 31.8081 22.2509L24.9815 34.1579H21.1808Z" fill="black"/>
<path d="M42.1402 34.1579V13.8788H52.7675C56.3469 13.8788 58.6716 16.0742 58.6716 19.7207C58.6716 23.5532 56.2362 25.7114 52.4723 25.7114H44.9446V34.1579H42.1402ZM52.3616 23.1812C54.6863 23.1812 55.7565 21.8416 55.7565 19.7579C55.7565 17.7114 54.6494 16.4091 52.2509 16.4091H44.8708V23.1812H52.3616Z" fill="black"/>
<path d="M61.7712 34.1579V13.8788H64.5387V25.7486C64.5387 27.7951 64.5018 29.73 64.428 31.5532H64.6494C65.2767 30.1393 66.0886 28.6137 67.3801 26.3067L74.428 13.8788H78.2288V34.1579H75.4613V22.6602C75.4613 20.837 75.5351 18.6044 75.6458 16.4463H75.4243C74.797 18.0091 73.7269 19.9439 72.3985 22.2509L65.6088 34.1207H61.7712V34.1579Z" fill="black"/>
<path d="M95.572 13.8788H98.524L91.1439 30.9579C90.0369 33.5253 88.8192 34.1951 86.8266 34.1951H82.6568V31.5905H86.5683C87.6753 31.5905 88.2657 31.0695 88.9299 29.5812L89.1513 29.1346L81.2915 13.8788H84.428L90.4797 25.9346L95.572 13.8788Z" fill="black"/>
<path d="M99.262 24.037C99.262 17.3393 103.284 13.5439 108.745 13.5439C113.506 13.5439 116.347 15.9998 117.196 20.2044H114.28C113.469 17.5625 111.476 16.0742 108.672 16.0742C104.649 16.0742 102.177 19.0509 102.177 23.9998C102.177 28.9486 104.797 31.9253 108.856 31.9253C111.55 31.9253 113.727 30.4742 114.465 27.9067H117.306C116.31 32.037 113.21 34.4556 108.819 34.4556C102.989 34.4556 99.262 30.7346 99.262 24.037Z" fill="black"/>
<path d="M164.465 31.8509V34.1579H162.103C160.148 34.1579 158.93 33.6742 158.893 30.9951L158.819 27.5719C158.745 25.3765 157.712 24.93 155.941 24.93H152.103V34.1951H149.336V24.8928H145.387C143.653 24.8928 142.583 25.3393 142.509 27.5346L142.435 30.9579C142.362 33.637 141.181 34.1207 139.225 34.1207H136.863V31.8137L138.672 31.7393C139.336 31.7021 139.742 31.4416 139.779 30.5858L139.889 26.9021C139.963 24.8556 140.849 23.9626 142.435 23.516V23.3672C140.959 22.8463 140.258 21.916 140.148 20.1672L140.037 17.4881C140 16.6695 139.594 16.3719 138.819 16.3346L137.122 16.2602V13.8044H139.41C141.882 13.8044 142.546 15.1439 142.62 16.8928L142.731 19.9439C142.804 21.3951 143.506 22.3625 145.24 22.3625H149.373V13.8044H152.14V22.3625H156.089C157.786 22.3625 158.561 21.3951 158.598 19.9439L158.708 16.8928C158.782 15.1439 159.447 13.8044 161.882 13.8044H164.207V16.2602L162.509 16.3346C161.734 16.3719 161.328 16.6695 161.292 17.4881L161.181 20.1672C161.107 21.916 160.369 22.8091 158.856 23.3672V23.516C160.443 23.9626 161.365 24.8184 161.439 26.9021L161.55 30.5858C161.587 31.4416 161.993 31.7021 162.657 31.7393L164.465 31.8509Z" fill="black"/>
<path d="M180.849 13.8788H183.801L176.421 30.9579C175.314 33.5253 174.096 34.1951 172.103 34.1951H167.934V31.5905H171.845C172.952 31.5905 173.542 31.0695 174.207 29.5812L174.428 29.1346L166.568 13.8788H169.705L175.756 25.9346L180.849 13.8788Z" fill="black"/>
<path d="M186.679 34.1579V13.8788H196.458C200.037 13.8788 202.362 16.0742 202.362 19.7207C202.362 23.5532 199.926 25.7114 196.162 25.7114H189.52V34.1579H186.679ZM189.447 23.1812H196.052C198.376 23.1812 199.446 21.8416 199.446 19.7579C199.446 17.7114 198.339 16.4091 195.941 16.4091H189.447V23.1812Z" fill="black"/>
<path d="M205.424 34.1579V13.8788H208.192V22.3253H218.081V13.8788H220.849V34.1579H218.081V24.93H208.192V34.1579H205.424Z" fill="black"/>
<path d="M223.727 34.1579L230.996 13.8788H234.465L241.808 34.1579H238.819L236.79 28.3905H228.672L226.642 34.1579H223.727ZM229.52 25.8974H235.904L233.875 20.2416C233.173 18.2323 232.915 17.4137 232.768 16.7067H232.62C232.435 17.4137 232.03 18.7532 231.513 20.2044L229.52 25.8974Z" fill="black"/>
<path d="M242.583 34.1951V31.8137L243.727 31.7393C245.646 31.6649 246.494 30.623 246.642 27.9067C246.9 23.1812 247.011 18.2695 247.159 13.8788H259.963V34.1579H257.196V16.4463H249.815C249.594 20.6137 249.446 25.3021 249.262 28.4649C249.041 32.6323 246.974 34.1579 243.948 34.1579H242.583V34.1951Z" fill="black"/>
<path d="M0 24.037C0 17.3393 4.02214 13.5439 9.48339 13.5439C14.2435 13.5439 17.0849 15.9998 17.9336 20.2044H15.0184C14.2066 17.5625 12.214 16.0742 9.40959 16.0742C5.38745 16.0742 2.91513 19.0509 2.91513 23.9998C2.91513 28.9486 5.53506 31.9253 9.5941 31.9253C12.2878 31.9253 14.4649 30.4742 15.203 27.9067H18.0443C17.048 32.037 13.9483 34.4556 9.5572 34.4556C3.72694 34.4556 0 30.7346 0 24.037Z" fill="black"/>
<path d="M0 24.037C0 17.3393 4.02214 13.5439 9.48339 13.5439C14.2435 13.5439 17.0849 15.9998 17.9336 20.2044H15.0184C14.2066 17.5625 12.214 16.0742 9.40959 16.0742C5.38745 16.0742 2.91513 19.0509 2.91513 23.9998C2.91513 28.9486 5.53506 31.9253 9.5941 31.9253C12.2878 31.9253 14.4649 30.4742 15.203 27.9067H18.0443C17.048 32.037 13.9483 34.4556 9.5572 34.4556C3.72694 34.4556 0 30.7346 0 24.037Z" fill="black"/>
<path d="M128.635 48L129.926 47.6651C128.044 39.9628 127.085 31.9628 127.085 23.9628C127.085 15.9628 128.044 8 129.926 0.260465L128.635 0C126.716 7.81395 125.756 15.8884 125.756 24C125.756 32.1116 126.716 40.186 128.635 48Z" fill="#9900FF"/>
</svg>
