<svg width="260" height="48" viewBox="0 0 260 48" fill="none" xmlns="http://www.w3.org/2000/svg">
<path d="M21.1808 34.1581V13.8791H23.9483V25.7488C23.9483 27.7954 23.9114 29.7302 23.8376 31.5535H24.059C24.6863 30.1395 25.4982 28.614 26.7897 26.307L33.8376 13.8791H37.6384V34.1581H34.8708V22.6605C34.8708 20.8372 34.9446 18.6047 35.0554 16.4465H34.834C34.2066 18.0093 33.1365 19.9442 31.8081 22.2512L24.9815 34.1581H21.1808Z" fill="white"/>
<path d="M42.1402 34.1581V13.8791H52.7675C56.3469 13.8791 58.6716 16.0744 58.6716 19.7209C58.6716 23.5535 56.2362 25.7116 52.4723 25.7116H44.9446V34.1581H42.1402ZM52.3616 23.1814C54.6863 23.1814 55.7565 21.8419 55.7565 19.7581C55.7565 17.7116 54.6494 16.4093 52.2509 16.4093H44.8708V23.1814H52.3616Z" fill="white"/>
<path d="M61.7712 34.1581V13.8791H64.5387V25.7488C64.5387 27.7954 64.5018 29.7302 64.428 31.5535H64.6494C65.2767 30.1395 66.0886 28.614 67.3801 26.307L74.428 13.8791H78.2288V34.1581H75.4613V22.6605C75.4613 20.8372 75.5351 18.6047 75.6458 16.4465H75.4243C74.797 18.0093 73.7269 19.9442 72.3985 22.2512L65.6088 34.1209H61.7712V34.1581Z" fill="white"/>
<path d="M95.572 13.8791H98.524L91.1439 30.9581C90.0369 33.5256 88.8192 34.1954 86.8266 34.1954H82.6568V31.5907H86.5683C87.6753 31.5907 88.2657 31.0698 88.9299 29.5814L89.1513 29.1349L81.2915 13.8791H84.428L90.4797 25.9349L95.572 13.8791Z" fill="white"/>
<path d="M99.262 24.0372C99.262 17.3395 103.284 13.5442 108.745 13.5442C113.506 13.5442 116.347 16 117.196 20.2047H114.28C113.469 17.5628 111.476 16.0744 108.672 16.0744C104.649 16.0744 102.177 19.0512 102.177 24C102.177 28.9488 104.797 31.9256 108.856 31.9256C111.55 31.9256 113.727 30.4744 114.465 27.907H117.306C116.31 32.0372 113.21 34.4558 108.819 34.4558C102.989 34.4558 99.262 30.7349 99.262 24.0372Z" fill="white"/>
<path d="M164.465 31.8512V34.1581H162.103C160.148 34.1581 158.93 33.6744 158.893 30.9954L158.819 27.5721C158.745 25.3767 157.712 24.9302 155.941 24.9302H152.103V34.1954H149.336V24.893H145.387C143.653 24.893 142.583 25.3395 142.509 27.5349L142.435 30.9581C142.362 33.6372 141.181 34.1209 139.225 34.1209H136.863V31.814L138.672 31.7395C139.336 31.7023 139.742 31.4419 139.779 30.5861L139.889 26.9023C139.963 24.8558 140.849 23.9628 142.435 23.5163V23.3674C140.959 22.8465 140.258 21.9163 140.148 20.1674L140.037 17.4884C140 16.6698 139.594 16.3721 138.819 16.3349L137.122 16.2605V13.8047H139.41C141.882 13.8047 142.546 15.1442 142.62 16.893L142.731 19.9442C142.804 21.3954 143.506 22.3628 145.24 22.3628H149.373V13.8047H152.14V22.3628H156.089C157.786 22.3628 158.561 21.3954 158.598 19.9442L158.708 16.893C158.782 15.1442 159.447 13.8047 161.882 13.8047H164.207V16.2605L162.509 16.3349C161.734 16.3721 161.328 16.6698 161.292 17.4884L161.181 20.1674C161.107 21.9163 160.369 22.8093 158.856 23.3674V23.5163C160.443 23.9628 161.365 24.8186 161.439 26.9023L161.55 30.5861C161.587 31.4419 161.993 31.7023 162.657 31.7395L164.465 31.8512Z" fill="white"/>
<path d="M180.849 13.8791H183.801L176.421 30.9581C175.314 33.5256 174.096 34.1954 172.103 34.1954H167.934V31.5907H171.845C172.952 31.5907 173.542 31.0698 174.207 29.5814L174.428 29.1349L166.568 13.8791H169.705L175.756 25.9349L180.849 13.8791Z" fill="white"/>
<path d="M186.679 34.1581V13.8791H196.458C200.037 13.8791 202.362 16.0744 202.362 19.7209C202.362 23.5535 199.926 25.7116 196.162 25.7116H189.52V34.1581H186.679ZM189.447 23.1814H196.052C198.376 23.1814 199.446 21.8419 199.446 19.7581C199.446 17.7116 198.339 16.4093 195.941 16.4093H189.447V23.1814Z" fill="white"/>
<path d="M205.424 34.1581V13.8791H208.192V22.3256H218.081V13.8791H220.849V34.1581H218.081V24.9302H208.192V34.1581H205.424Z" fill="white"/>
<path d="M223.727 34.1581L230.996 13.8791H234.465L241.808 34.1581H238.819L236.79 28.3907H228.672L226.642 34.1581H223.727ZM229.52 25.8977H235.904L233.875 20.2419C233.173 18.2326 232.915 17.414 232.768 16.707H232.62C232.435 17.414 232.03 18.7535 231.513 20.2047L229.52 25.8977Z" fill="white"/>
<path d="M242.583 34.1954V31.814L243.727 31.7395C245.646 31.6651 246.494 30.6233 246.642 27.907C246.9 23.1814 247.011 18.2698 247.159 13.8791H259.963V34.1581H257.196V16.4465H249.815C249.594 20.614 249.446 25.3023 249.262 28.4651C249.041 32.6326 246.974 34.1581 243.948 34.1581H242.583V34.1954Z" fill="white"/>
<path d="M0 24.0372C0 17.3395 4.02214 13.5442 9.48339 13.5442C14.2435 13.5442 17.0849 16 17.9336 20.2047H15.0184C14.2066 17.5628 12.214 16.0744 9.40959 16.0744C5.38745 16.0744 2.91513 19.0512 2.91513 24C2.91513 28.9488 5.53506 31.9256 9.5941 31.9256C12.2878 31.9256 14.4649 30.4744 15.203 27.907H18.0443C17.048 32.0372 13.9483 34.4558 9.5572 34.4558C3.72694 34.4558 0 30.7349 0 24.0372Z" fill="white"/>
<path d="M0 24.0372C0 17.3395 4.02214 13.5442 9.48339 13.5442C14.2435 13.5442 17.0849 16 17.9336 20.2047H15.0184C14.2066 17.5628 12.214 16.0744 9.40959 16.0744C5.38745 16.0744 2.91513 19.0512 2.91513 24C2.91513 28.9488 5.53506 31.9256 9.5941 31.9256C12.2878 31.9256 14.4649 30.4744 15.203 27.907H18.0443C17.048 32.0372 13.9483 34.4558 9.5572 34.4558C3.72694 34.4558 0 30.7349 0 24.0372Z" fill="white"/>
<path d="M128.635 48L129.926 47.6651C128.044 39.9628 127.085 31.9628 127.085 23.9628C127.085 15.9628 128.044 8 129.926 0.260465L128.635 0C126.716 7.81395 125.756 15.8884 125.756 24C125.756 32.1116 126.716 40.186 128.635 48Z" fill="#C300FF"/>
</svg>
