<svg width="48" height="48" viewBox="0 0 48 48" fill="none" xmlns="http://www.w3.org/2000/svg">
<path fill-rule="evenodd" clip-rule="evenodd" d="M24 0C10.7452 0 0 10.7452 0 24C0 37.2548 10.7452 48 24 48C37.2548 48 48 37.2548 48 24C48 10.7452 37.2548 0 24 0ZM28.2426 15.5147C30.1953 13.5621 33.3611 13.5621 35.3137 15.5147C37.2663 17.4673 37.2663 20.6332 35.3137 22.5858L28.2426 29.6569C26.531 31.3685 23.887 31.5797 21.9453 30.2905C21.9245 30.3158 21.9023 30.3403 21.8787 30.364L19.7574 32.4853C17.8047 34.4379 14.6389 34.4379 12.6863 32.4853C10.7337 30.5327 10.7337 27.3668 12.6863 25.4142L19.7574 18.3431C21.469 16.6315 24.113 16.4203 26.0547 17.7095C26.0755 17.6842 26.0977 17.6597 26.1213 17.636L28.2426 15.5147ZM21.1716 22.5858C19.4599 24.2975 19.2487 26.9414 20.5379 28.8831C20.5126 28.9039 20.4881 28.9261 20.4645 28.9497L18.3431 31.0711C17.1716 32.2426 15.2721 32.2426 14.1005 31.0711C12.9289 29.8995 12.9289 28 14.1005 26.8284L21.1716 19.7574C22.3431 18.5858 24.2426 18.5858 25.4142 19.7574C26.5858 20.9289 26.5858 22.8284 25.4142 24L24 25.4142C23.6095 25.8047 23.6095 26.4379 24 26.8284C24.3905 27.219 25.0237 27.219 25.4142 26.8284L26.8284 25.4142C28.5401 23.7025 28.7513 21.0586 27.4621 19.1169C27.4874 19.0961 27.5119 19.0739 27.5355 19.0503L29.6569 16.9289C30.8284 15.7574 32.7279 15.7574 33.8995 16.9289C35.0711 18.1005 35.0711 20 33.8995 21.1716L26.8284 28.2426C25.6569 29.4142 23.7574 29.4142 22.5858 28.2426C21.4142 27.0711 21.4142 25.1716 22.5858 24L24 22.5858C24.3905 22.1953 24.3905 21.5621 24 21.1716C23.6095 20.781 22.9763 20.781 22.5858 21.1716L21.1716 22.5858Z" fill="#1E0B2E"/>
</svg>
