<svg width="48" height="48" viewBox="0 0 48 48" fill="none" xmlns="http://www.w3.org/2000/svg">
<path fill-rule="evenodd" clip-rule="evenodd" d="M24 0C10.7452 0 0 10.7452 0 24C0 37.2548 10.7452 48 24 48C37.2548 48 48 37.2548 48 24C48 10.7452 37.2548 0 24 0ZM9.95605 38.9336C10.4402 37.3704 10.9718 35.8545 11.5034 34.3387C11.8355 33.3918 12.1676 32.4449 12.4881 31.4865C6.96238 21.8221 13.8007 10.9425 23.063 10.0387C31.8081 9.1853 38.9782 15.4667 39 24.0393C39.0227 33.0847 30.25 40.6802 20.382 37.593C20.0929 37.5026 19.7771 37.3328 19.4482 37.1559C18.9304 36.8775 18.38 36.5816 17.85 36.5504C16.9958 36.5001 15.9545 36.9178 14.9859 37.3063C14.5811 37.4687 14.1889 37.6261 13.8285 37.742C13.4837 37.8529 13.1504 37.9639 12.8224 38.0731C11.8752 38.3886 10.9707 38.6898 9.95605 38.9336ZM18.1479 33.8695C26.1166 38.7057 35.6584 33.2813 36.4679 25.3798C37.2005 18.2268 31.489 11.8623 23.8077 12.4218C15.0383 13.0604 9.77075 23.5282 15.169 31.1885C14.6911 32.4981 14.2439 33.8383 13.8285 35.2101C14.4405 35.0328 15.0324 34.8356 15.6244 34.6385C16.4476 34.3642 17.2709 34.09 18.1479 33.8695ZM21.276 17.3369L21.3269 17.4434C22.1648 19.1936 23.3679 21.7068 21.276 22.8479C22.3601 25.1398 24.1526 26.7234 26.4889 27.763C26.9996 27.4252 27.3951 26.9721 27.7906 26.519C27.9967 26.2828 28.2028 26.0466 28.4252 25.8268C29.7814 26.3573 31.049 26.9761 32.1487 27.763C32.2617 30.3253 30.1025 31.2729 28.2763 31.1887C24.4234 31.0114 19.128 26.1438 17.8503 22.55C17.0921 20.4176 17.9641 16.339 21.276 17.3369Z" fill="#1E0B2E"/>
</svg>
