<svg width="48" height="48" viewBox="0 0 48 48" fill="none" xmlns="http://www.w3.org/2000/svg">
<path fill-rule="evenodd" clip-rule="evenodd" d="M24 0C10.7452 0 0 10.7452 0 24C0 37.2548 10.7452 48 24 48C37.2548 48 48 37.2548 48 24C48 10.7452 37.2548 0 24 0ZM26.2948 13.0806C25.9644 12.8393 25.4999 13.0752 25.4999 13.4843V18.5C18.3201 18.5 12.4997 24.3205 12.4999 31.5003L12.4999 32.7984C12.4999 33.1865 13.046 33.2707 13.1629 32.9006C14.5541 28.4951 18.6409 25.5 23.2609 25.5H25.4999L25.4999 30.5132C25.5 30.9228 25.9654 31.1586 26.2957 30.9164L37.9287 22.3837C38.2014 22.1836 38.201 21.7762 37.9278 21.5767L26.2948 13.0806Z" fill="#1E0B2E"/>
</svg>
