<svg width="48" height="48" viewBox="0 0 48 48" fill="none" xmlns="http://www.w3.org/2000/svg">
<path fill-rule="evenodd" clip-rule="evenodd" d="M24 0C10.7452 0 0 10.7452 0 24C0 37.2548 10.7452 48 24 48C37.2548 48 48 37.2548 48 24C48 10.7452 37.2548 0 24 0ZM24.1442 16.1793C21.9034 17.1233 17.4288 19.0771 10.7168 22.0404C9.62906 22.4798 9.05769 22.9096 9.00606 23.3296C8.91819 24.0399 9.79592 24.3195 10.9912 24.7004C11.1537 24.7522 11.322 24.8058 11.4947 24.8627C12.6684 25.2499 14.2483 25.7031 15.0709 25.7209C15.8178 25.7373 16.6508 25.4256 17.5699 24.7861C23.8378 20.4961 27.0768 18.3275 27.2799 18.2808C27.421 18.248 27.6207 18.2065 27.7549 18.3279C27.8892 18.4489 27.8753 18.6786 27.8616 18.7402C27.7746 19.1176 24.2972 22.3934 22.5224 24.0655C21.9807 24.5758 21.5976 24.9367 21.5179 25.0202C21.3374 25.2103 21.1535 25.3901 20.9767 25.563C19.8857 26.6297 19.0672 27.4299 21.0223 28.7364C21.9701 29.3688 22.7265 29.8909 23.4823 30.4126C24.2964 30.9745 25.1099 31.536 26.1612 32.2343C26.4305 32.4133 26.6877 32.5991 26.9382 32.7802C27.8918 33.4693 28.7487 34.0885 29.8064 33.9896C30.4225 33.9323 31.0593 33.3462 31.3794 31.5976C32.1436 27.4651 33.6408 18.5116 33.9885 14.822C34.0194 14.499 33.9816 14.0852 33.9506 13.9036C33.9197 13.7221 33.8543 13.4632 33.6237 13.2718C33.3483 13.0446 32.9215 12.9969 32.7321 13.0002C31.8647 13.0159 30.5361 13.484 24.1442 16.1793Z" fill="white"/>
</svg>
