<svg width="48" height="48" viewBox="0 0 48 48" fill="none" xmlns="http://www.w3.org/2000/svg">
<path fill-rule="evenodd" clip-rule="evenodd" d="M24 0C10.7452 0 0 10.7452 0 24C0 37.2548 10.7452 48 24 48C37.2548 48 48 37.2548 48 24C48 10.7452 37.2548 0 24 0ZM33.257 22.0097C34.6024 20.0847 35.1944 18.9297 35.0329 18.3797L34.9253 18.2697C34.8715 18.1597 34.7639 18.1047 34.5486 18.0497C34.3871 17.9397 34.1181 17.9397 33.7952 17.9947H30.351H30.1357C30.0281 18.0497 29.9743 18.0497 29.9743 18.0497C29.9743 18.1047 29.9205 18.1047 29.9205 18.1047L29.8667 18.1597L29.759 18.2697C29.7321 18.2972 29.7187 18.3384 29.7052 18.3797C29.6918 18.4209 29.6783 18.4622 29.6514 18.4897C29.2747 19.4797 28.8442 20.4147 28.3598 21.2397C28.0908 21.7347 27.8217 22.1747 27.5526 22.5597C27.2835 22.9447 27.0683 23.2197 26.9068 23.3847C26.8509 23.4419 26.8014 23.4991 26.7538 23.554C26.6643 23.6575 26.5818 23.7528 26.4763 23.8247C26.4146 23.8457 26.3608 23.8667 26.3149 23.8846C26.2405 23.9137 26.1867 23.9347 26.1534 23.9347C26.0904 23.9347 26.0458 23.9158 26.0089 23.9002C25.9827 23.8891 25.9604 23.8797 25.9382 23.8797C25.8305 23.8247 25.7229 23.7147 25.6691 23.6047C25.5614 23.4397 25.5076 23.2747 25.5076 23.1097C25.4538 22.9447 25.4538 22.7797 25.4538 22.6147V22.0097V21.5147C25.4538 21.4284 25.4485 21.3368 25.4429 21.2397C25.4306 21.0273 25.4169 20.7889 25.4538 20.5247C25.5076 20.1397 25.5076 19.8647 25.5076 19.6447V18.9847C25.5076 18.7647 25.5076 18.5447 25.4538 18.4347C25.4538 18.3247 25.4 18.1597 25.3462 18.0497C25.2924 17.9397 25.1847 17.8297 25.0771 17.7747C24.9695 17.7197 24.8618 17.6647 24.7004 17.6097C24.2699 17.4997 23.7317 17.4447 23.0859 17.4447C21.6329 17.3897 20.6643 17.4997 20.2337 17.7197C20.0723 17.8297 19.9108 17.9397 19.8032 18.1047C19.6418 18.2697 19.6418 18.3797 19.7494 18.3797C20.2337 18.4897 20.5566 18.6547 20.7719 18.9297L20.8257 19.0947C20.8795 19.2047 20.9333 19.3697 20.9872 19.6447L20.9872 19.6447C21.041 19.9197 21.0948 20.1947 21.0948 20.5247C21.1486 21.1297 21.1486 21.6247 21.0948 22.0647C21.0722 22.249 21.0591 22.414 21.0476 22.5597C21.0315 22.7618 21.0184 22.9268 20.9872 23.0547C20.9333 23.2747 20.8795 23.4397 20.8257 23.6047L20.8257 23.6047C20.7181 23.7697 20.6643 23.8797 20.6643 23.8797L20.6104 23.9347C20.5028 23.9897 20.3952 23.9897 20.2875 23.9897C20.1261 23.9897 20.0185 23.9347 19.857 23.8247C19.6956 23.7147 19.5341 23.5497 19.3727 23.3297C19.2112 23.1647 18.996 22.8897 18.7807 22.5047C18.5116 22.1747 18.2964 21.7347 18.0811 21.2397L17.8659 20.9097L17.3815 19.9197C17.229 19.6079 17.1035 19.2962 16.9859 19.004C16.9375 18.8838 16.8904 18.7669 16.8434 18.6547C16.7896 18.4897 16.6819 18.3797 16.5743 18.2697L16.5205 18.2147C16.4872 18.1807 16.454 18.1677 16.408 18.1498C16.3796 18.1387 16.3463 18.1257 16.3052 18.1047C16.2514 18.1047 16.211 18.0909 16.1707 18.0772C16.1303 18.0634 16.09 18.0497 16.0361 18.0497H12.7534C12.4305 18.0497 12.2153 18.1047 12.1076 18.2697L12.0538 18.3247C12 18.3797 12 18.4347 12 18.5447C12 18.5997 12 18.7097 12.0538 18.8197C12.5382 19.9747 13.0225 21.0747 13.6145 22.1747C13.8228 22.5618 14.0111 22.9285 14.1865 23.2699C14.5094 23.8987 14.7885 24.442 15.0675 24.8697C15.498 25.5297 15.9285 26.1897 16.359 26.7397C16.5235 26.9498 16.6644 27.1358 16.7847 27.2946C16.9794 27.5517 17.1203 27.7377 17.2201 27.8397C17.3277 28.0047 17.4892 28.1697 17.543 28.2247L17.8659 28.4997C18.0811 28.7197 18.3502 28.9397 18.7269 29.2147C19.1036 29.4897 19.5341 29.7647 19.9646 30.0397L19.9647 30.0397C20.3952 30.3147 20.9333 30.5347 21.5253 30.6997C22.1711 30.8647 22.7092 30.9747 23.3012 30.9197H24.539C24.808 30.8647 25.0233 30.8097 25.1847 30.6447L25.2386 30.5897C25.2718 30.5557 25.2845 30.5217 25.3021 30.4747C25.3129 30.4457 25.3256 30.4117 25.3462 30.3697C25.4 30.2597 25.4 30.1497 25.4 30.0397C25.3462 29.7097 25.4 29.3797 25.4538 29.1047C25.4913 28.8746 25.555 28.7247 25.6084 28.5991C25.6316 28.5446 25.6528 28.4946 25.6691 28.4447C25.6979 28.4005 25.7229 28.3602 25.7461 28.3228C25.8094 28.2207 25.8594 28.1402 25.9382 28.0597L25.9382 28.0597C26.0458 27.9497 26.0996 27.8947 26.1534 27.8947C26.2072 27.8397 26.261 27.8397 26.261 27.8397C26.4763 27.7297 26.6916 27.7847 26.9606 28.0047L26.9607 28.0047C27.2297 28.2247 27.4988 28.4447 27.7141 28.7197C27.9293 28.9947 28.1984 29.3247 28.5213 29.6547C28.8442 29.9847 29.1671 30.2597 29.3823 30.4247L29.5976 30.5897C29.759 30.6997 29.9743 30.8097 30.2434 30.8647C30.2683 30.8698 30.2927 30.8749 30.3167 30.8799C30.5523 30.9289 30.7476 30.9696 30.943 30.9197L34.0104 30.8647C34.2795 30.8647 34.5486 30.8097 34.71 30.6997C34.9253 30.5897 34.9791 30.4797 35.0329 30.3697C35.0329 30.3125 35.0394 30.2619 35.0456 30.2133C35.0573 30.1218 35.0681 30.0375 35.0329 29.9297C35.0124 29.8667 34.9997 29.8117 34.9888 29.7647C34.9713 29.6887 34.9586 29.6337 34.9253 29.5997C34.9253 29.5722 34.9118 29.5447 34.8984 29.5172C34.8849 29.4897 34.8715 29.4622 34.8715 29.4347C34.441 28.7197 33.6876 27.8397 32.5574 26.7397C32.5574 26.7397 32.5574 26.6847 32.5036 26.6847C32.352 26.5297 32.2004 26.3922 32.068 26.2722C31.9655 26.1792 31.8745 26.0967 31.804 26.0247C31.6426 25.8047 31.5349 25.6397 31.4273 25.4747L31.4273 25.4747C31.3612 25.3734 31.3357 25.2721 31.3134 25.1835C31.2994 25.1278 31.2866 25.0771 31.2659 25.0347C31.2659 24.9247 31.3197 24.7597 31.4273 24.5397C31.5095 24.3716 31.6232 24.2036 31.7202 24.06C31.7502 24.0156 31.7786 23.9736 31.804 23.9347C31.8705 23.8327 31.9782 23.6887 32.1269 23.4897C32.2188 23.3667 32.3265 23.2227 32.4498 23.0547C32.7009 22.7613 32.8803 22.5169 33.0358 22.3051C33.1135 22.1991 33.1853 22.1013 33.257 22.0097Z" fill="white"/>
</svg>
