<svg width="48" height="48" viewBox="0 0 48 48" fill="none" xmlns="http://www.w3.org/2000/svg">
<path fill-rule="evenodd" clip-rule="evenodd" d="M0.00134952 23.7428C0.000450586 23.8284 0 23.9142 0 24V23.7429C0.000449851 23.7428 0.000899692 23.7428 0.00134952 23.7428ZM23.7428 0.00134955C23.4 10.629 23.1427 15.4802 19.3714 19.3714C15.4802 23.1427 10.629 23.4171 0.00134952 23.7428C0.13837 10.6921 10.6921 0.138371 23.7428 0.00134955ZM24 0C23.9142 0 23.8284 0.000450594 23.7428 0.00134955C23.7428 0.000899707 23.7428 0.000449859 23.7429 0H24ZM24.2572 0.00134954C24.1716 0.000450593 24.0858 0 24 0H24.2571C24.2572 0.000449858 24.2572 0.000899706 24.2572 0.00134954ZM47.9986 23.7428C37.371 23.4 32.5198 23.1427 28.6286 19.3714C24.8573 15.4802 24.5829 10.629 24.2572 0.00134954C37.3079 0.138371 47.8616 10.6921 47.9986 23.7428ZM48 24C48 23.9142 47.9995 23.8284 47.9986 23.7428C47.9991 23.7428 47.9995 23.7428 48 23.7429V24ZM47.9986 24.2572C47.9995 24.1716 48 24.0858 48 24V24.2571C47.9995 24.2572 47.9991 24.2572 47.9986 24.2572ZM24.2572 47.9986C24.6 37.371 24.8573 32.5198 28.6286 28.6286C32.5198 24.8573 37.371 24.5829 47.9986 24.2572C47.8616 37.3079 37.3079 47.8616 24.2572 47.9986ZM24 48C24.0858 48 24.1716 47.9995 24.2572 47.9986C24.2572 47.9991 24.2572 47.9995 24.2571 48H24ZM23.7428 47.9986C23.8284 47.9995 23.9142 48 24 48H23.7429C23.7428 47.9995 23.7428 47.9991 23.7428 47.9986ZM23.7428 47.9986C10.6921 47.8616 0.138372 37.3079 0.00134957 24.2572C10.629 24.6 15.4802 24.8573 19.3714 28.6286C23.1427 32.5198 23.4171 37.371 23.7428 47.9986ZM0.00134957 24.2572C0.000899721 24.2572 0.000449866 24.2572 0 24.2571V24C0 24.0858 0.000450601 24.1716 0.00134957 24.2572Z" fill="#1E0B2E"/>
</svg>
