<svg width="48" height="48" viewBox="0 0 48 48" fill="none" xmlns="http://www.w3.org/2000/svg">
<path fill-rule="evenodd" clip-rule="evenodd" d="M24 0C10.7452 0 0 10.7452 0 24C0 37.2548 10.7452 48 24 48C37.2548 48 48 37.2548 48 24C48 10.7452 37.2548 0 24 0ZM30.5679 25.43C30.5679 25.265 30.5141 25.045 30.4065 24.825L30.4065 24.825C30.3526 24.66 30.245 24.33 30.1374 24.22C30.0298 24.11 29.8683 24 29.653 23.945C29.4378 23.89 29.2225 23.89 28.9534 23.945C28.6844 24.055 28.4153 24.165 28.1462 24.385L27.7157 24.715C27.3928 24.88 26.9085 25.1 26.2627 25.32C25.5631 25.54 24.9173 25.65 24.1639 25.65C23.7334 25.65 23.249 25.65 22.8185 25.54C22.3342 25.485 21.9575 25.375 21.6884 25.265C21.4193 25.155 21.1502 25.045 20.8812 24.88C20.6121 24.77 20.3968 24.66 20.343 24.605C20.3161 24.5775 20.2892 24.5637 20.2623 24.55C20.2354 24.5362 20.2085 24.5225 20.1816 24.495C19.9125 24.275 19.6434 24.11 19.3743 24.055C19.1053 24 18.89 24 18.6747 24.055C18.5133 24.11 18.3518 24.22 18.1904 24.33C18.0828 24.44 17.9213 24.605 17.8675 24.77C17.7599 24.99 17.7061 25.21 17.7061 25.375C17.7061 25.54 17.7061 25.705 17.7599 25.87C17.8137 26.035 17.9213 26.2 18.0828 26.365C18.1904 26.53 18.4057 26.695 18.5671 26.805C18.7247 26.8855 18.8823 26.9955 19.0821 27.135C19.1552 27.1861 19.234 27.2411 19.3205 27.3C20.2354 27.905 21.5269 28.29 23.1414 28.455L22.2804 29.335L19.0514 32.635C18.7824 32.91 18.6747 33.24 18.6747 33.57C18.6747 33.9 18.7824 34.23 19.0514 34.45V34.67C19.2667 34.945 19.5358 35.055 19.9125 35.055C20.2892 35.055 20.5583 34.89 20.8273 34.67L24.0563 31.37L27.2852 34.67C27.5542 34.945 27.8771 35.055 28.2 35.055C28.5767 35.055 28.8458 34.89 29.1149 34.67L29.2763 34.505C29.5454 34.285 29.653 34.01 29.653 33.625C29.653 33.24 29.4916 32.965 29.2763 32.69L26.0474 29.39L25.1864 28.51C26.747 28.345 28.0386 27.96 28.9534 27.355C29.1956 27.2313 29.4075 27.0766 29.5664 26.9606C29.6194 26.9219 29.6665 26.8875 29.7069 26.86C29.8683 26.75 30.0298 26.585 30.1912 26.42C30.3526 26.255 30.4603 26.09 30.5141 25.925C30.5679 25.76 30.5679 25.595 30.5679 25.43V25.43ZM24.1101 24.165C25.6169 24.165 26.9085 23.615 27.9848 22.515C29.0611 21.415 29.5992 20.095 29.5992 18.61C29.5992 17.07 29.0611 15.75 27.9848 14.65C26.9085 13.55 25.6169 13 24.1101 13C22.6032 13 21.3117 13.55 20.2354 14.65C19.1591 15.75 18.6209 17.07 18.6209 18.61C18.6209 20.095 19.1591 21.415 20.2354 22.515C21.3117 23.615 22.6032 24.165 24.1101 24.165ZM24.1639 15.805C24.9173 15.805 25.5093 16.08 26.0474 16.63C26.5856 17.18 26.8008 17.84 26.8546 18.555C26.8546 19.325 26.5856 19.93 26.0474 20.48C25.5093 21.03 24.9173 21.305 24.1639 21.305C23.4105 21.305 22.8185 21.03 22.2804 20.48C21.7422 19.93 21.4731 19.325 21.4731 18.555C21.4731 17.84 21.7422 17.18 22.2804 16.63C22.8185 16.08 23.4105 15.805 24.1639 15.805Z" fill="white"/>
</svg>
