<svg width="256" height="36" viewBox="0 0 256 36" fill="none" xmlns="http://www.w3.org/2000/svg">
<g clip-path="url(#clip0_588_7760)">
<path d="M100.758 36H97.6011V0H100.758V0.887693H98.4985V35.1123H100.758V36Z" fill="#9900FF"/>
<path d="M0 17.5763C0 12.5084 3.0921 9.67584 7.30193 9.67584C10.9651 9.67584 13.1516 11.5239 13.788 14.6953H11.5607C10.9488 12.694 9.39869 11.5642 7.23666 11.5642C4.14456 11.5642 2.22729 13.8157 2.22729 17.5521C2.22729 21.2885 4.22615 23.54 7.3672 23.54C9.43948 23.54 11.1201 22.4344 11.6912 20.4976H13.8778C13.1027 23.6046 10.7122 25.4284 7.34272 25.4284C2.86366 25.4284 0 22.612 0 17.5763Z" fill="black"/>
<path d="M16.2927 25.2024V9.90179H18.4303V18.8594C18.4303 20.4089 18.4058 21.8776 18.3405 23.2495H18.5037C18.9851 22.1923 19.597 21.0222 20.6005 19.2871L26.0178 9.90179H28.9304V25.2024H26.7928V16.5353C26.7928 15.1634 26.8418 13.4768 26.9315 11.8547H26.7683C26.287 13.0491 25.4711 14.4855 24.4431 16.2448L19.2053 25.2024H16.2927Z" fill="black"/>
<path d="M32.4141 25.2024V9.90179H40.336C43.0936 9.90179 44.8641 11.5481 44.8641 14.3161C44.8641 17.084 42.9957 18.8433 40.0831 18.8433H34.5516V25.2105H32.4141V25.2024ZM34.5516 16.9226H40.0342C41.8127 16.9226 42.6531 15.9139 42.6531 14.3322C42.6531 12.7505 41.7883 11.8144 39.9689 11.8144H34.5516V16.9226Z" fill="black"/>
<path d="M47.2463 25.2024V9.90179H49.3839V18.8594C49.3839 20.4089 49.3594 21.8776 49.2941 23.2495H49.4573C49.9387 22.1923 50.5506 21.0222 51.5541 19.2871L56.9714 9.90179H59.884V25.2024H57.7464V16.5353C57.7464 15.1634 57.7954 13.4768 57.8851 11.8547H57.722C57.2406 13.0491 56.4247 14.4855 55.3968 16.2448L50.159 25.2024H47.2463Z" fill="black"/>
<path d="M73.2559 9.90181H75.5321L69.8456 22.7734C69.0052 24.7101 68.0507 25.2024 66.525 25.2024H63.3187V23.2414H66.3211C67.1859 23.2414 67.6183 22.8379 68.1404 21.7323L68.3036 21.3934L62.2744 9.89374H64.6894L69.3561 18.9886L73.2722 9.89374L73.2559 9.90181Z" fill="black"/>
<path d="M76.0707 17.5763C76.0707 12.5084 79.1628 9.67584 83.3726 9.67584C87.0358 9.67584 89.2223 11.5239 89.8587 14.6953H87.6314C87.0195 12.694 85.4693 11.5642 83.3073 11.5642C80.2152 11.5642 78.2979 13.8157 78.2979 17.5521C78.2979 21.2885 80.2968 23.54 83.4379 23.54C85.5101 23.54 87.1908 22.4344 87.7619 20.4976H89.9484C89.1733 23.6046 86.7829 25.4284 83.4134 25.4284C78.9343 25.4284 76.0625 22.612 76.0625 17.5682L76.0707 17.5763Z" fill="black"/>
<path d="M106.143 17.5763C106.143 12.5084 109.235 9.67584 113.445 9.67584C117.108 9.67584 119.295 11.5239 119.931 14.6953H117.704C117.092 12.694 115.542 11.5642 113.38 11.5642C110.288 11.5642 108.37 13.8157 108.37 17.5521C108.37 21.2885 110.369 23.54 113.51 23.54C115.583 23.54 117.263 22.4344 117.834 20.4976H120.021C119.246 23.6046 116.855 25.4284 113.486 25.4284C109.007 25.4284 106.135 22.612 106.135 17.5682L106.143 17.5763Z" fill="black"/>
<path d="M122.436 25.2024V9.90179H134.747V25.2024H132.61V11.8547H124.573V25.2024H122.436Z" fill="black"/>
<path d="M138.239 25.2024V9.90179H148.845V11.8386H140.377V16.4788H148.503V18.4156H140.377V23.2818H149.343V25.2185H138.239V25.2024Z" fill="black"/>
<path d="M163.889 28.6725V25.2024H151.807V9.90179H153.944V23.2495H161.589V9.90179H163.726V23.2495H165.913V28.6725H163.889Z" fill="black"/>
<path d="M168.173 25.2024V9.90179H180.484V25.2024H178.347V11.8547H170.31V25.2024H168.173Z" fill="black"/>
<path d="M183.968 25.2024V9.90179H191.89C194.647 9.90179 196.418 11.5481 196.418 14.3161C196.418 17.084 194.549 18.8433 191.637 18.8433H186.105V25.2105H183.968V25.2024ZM186.105 16.9226H191.588C193.366 16.9226 194.207 15.9139 194.207 14.3322C194.207 12.7505 193.342 11.8144 191.523 11.8144H186.105V16.9226Z" fill="black"/>
<path d="M198.205 17.5521C198.205 12.8231 200.848 9.67584 205.466 9.67584C210.083 9.67584 212.702 12.8473 212.702 17.5521C212.702 22.2569 210.059 25.4284 205.441 25.4284C200.823 25.4284 198.205 22.2569 198.205 17.5521ZM210.467 17.5521C210.467 13.8399 208.558 11.54 205.441 11.54C202.325 11.54 200.432 13.8157 200.432 17.5521C200.432 21.2885 202.341 23.5642 205.458 23.5642C208.574 23.5642 210.467 21.2885 210.467 17.5521Z" fill="black"/>
<path d="M215.313 25.2024V9.90179H225.919V11.8386H217.451V16.4788H225.577V18.4156H217.451V23.2818H226.417V25.2185H215.313V25.2024Z" fill="black"/>
<path d="M228.881 25.2024V9.90179H231.019V16.3416H235.612C236.974 16.3416 237.431 15.6476 237.456 14.542L237.521 12.2905C237.57 10.959 238.092 9.90179 239.911 9.90179H241.78V11.7498L240.417 11.7982C239.822 11.8224 239.601 12 239.552 12.6052L239.438 14.6066C239.373 15.7525 238.957 16.5676 237.823 17.084V17.197C239.03 17.536 239.83 18.1896 239.871 19.739L239.936 22.5312C239.96 23.1849 240.278 23.3867 240.776 23.4109L242.343 23.4754V25.2105H240.344C238.843 25.2105 237.913 24.8473 237.864 22.8218L237.815 20.2313C237.79 18.5689 236.95 18.2461 235.604 18.2461H231.01V25.2024H228.873H228.881Z" fill="black"/>
<path d="M248.714 25.2024V11.8305H243.574V9.89374H256V11.8305H250.86V25.2024H248.723H248.714Z" fill="black"/>
</g>
<defs>
<clipPath id="clip0_588_7760">
<rect width="256" height="36" fill="white"/>
</clipPath>
</defs>
</svg>
