<svg width="256" height="36" viewBox="0 0 256 36" fill="none" xmlns="http://www.w3.org/2000/svg">
<g clip-path="url(#clip0_165_6839)">
<path d="M100.758 36H97.6011V0H100.758V0.887693H98.4985V35.1123H100.758V36Z" fill="#9900FF"/>
<path d="M0 17.5763C0 12.5083 3.0921 9.67578 7.30193 9.67578C10.9651 9.67578 13.1516 11.5238 13.788 14.6953H11.5607C10.9488 12.6939 9.39869 11.5641 7.23666 11.5641C4.14456 11.5641 2.22729 13.8157 2.22729 17.552C2.22729 21.2884 4.22615 23.5399 7.3672 23.5399C9.43948 23.5399 11.1201 22.4344 11.6912 20.4976H13.8778C13.1027 23.6045 10.7122 25.4283 7.34272 25.4283C2.86366 25.4283 0 22.6119 0 17.5763Z" fill="white"/>
<path d="M16.2925 25.2025V9.90186H18.43V18.8595C18.43 20.4089 18.4056 21.8776 18.3403 23.2495H18.5035C18.9848 22.1924 19.5967 21.0222 20.6002 19.2872L26.0175 9.90186H28.9301V25.2025H26.7926V16.5353C26.7926 15.1635 26.8415 13.4768 26.9313 11.8548H26.7681C26.2867 13.0491 25.4709 14.4856 24.4429 16.2448L19.2051 25.2025H16.2925Z" fill="white"/>
<path d="M32.4141 25.2025V9.90186H40.336C43.0936 9.90186 44.8641 11.5481 44.8641 14.3161C44.8641 17.0841 42.9957 18.8433 40.0831 18.8433H34.5516V25.2105H32.4141V25.2025ZM34.5516 16.9227H40.0342C41.8127 16.9227 42.6531 15.914 42.6531 14.3323C42.6531 12.7505 41.7883 11.8144 39.9689 11.8144H34.5516V16.9227Z" fill="white"/>
<path d="M47.2466 25.2025V9.90186H49.3841V18.8595C49.3841 20.4089 49.3597 21.8776 49.2944 23.2495H49.4576C49.9389 22.1924 50.5508 21.0222 51.5543 19.2872L56.9716 9.90186H59.8842V25.2025H57.7467V16.5353C57.7467 15.1635 57.7956 13.4768 57.8854 11.8548H57.7222C57.2408 13.0491 56.425 14.4856 55.397 16.2448L50.1592 25.2025H47.2466Z" fill="white"/>
<path d="M73.2559 9.90162H75.5321L69.8456 22.7732C69.0052 24.71 68.0507 25.2022 66.525 25.2022H63.3187V23.2412H66.3211C67.1859 23.2412 67.6183 22.8377 68.1404 21.7322L68.3036 21.3932L62.2744 9.89355H64.6894L69.3561 18.9884L73.2722 9.89355L73.2559 9.90162Z" fill="white"/>
<path d="M76.0707 17.5763C76.0707 12.5083 79.1628 9.67578 83.3726 9.67578C87.0358 9.67578 89.2223 11.5238 89.8587 14.6953H87.6314C87.0195 12.6939 85.4693 11.5641 83.3073 11.5641C80.2152 11.5641 78.2979 13.8157 78.2979 17.552C78.2979 21.2884 80.2968 23.5399 83.4379 23.5399C85.5101 23.5399 87.1908 22.4344 87.7619 20.4976H89.9484C89.1733 23.6045 86.7829 25.4283 83.4134 25.4283C78.9343 25.4283 76.0625 22.6119 76.0625 17.5682L76.0707 17.5763Z" fill="white"/>
<path d="M106.143 17.5763C106.143 12.5083 109.235 9.67578 113.445 9.67578C117.108 9.67578 119.295 11.5238 119.931 14.6953H117.704C117.092 12.6939 115.542 11.5641 113.38 11.5641C110.287 11.5641 108.37 13.8157 108.37 17.552C108.37 21.2884 110.369 23.5399 113.51 23.5399C115.582 23.5399 117.263 22.4344 117.834 20.4976H120.021C119.246 23.6045 116.855 25.4283 113.486 25.4283C109.007 25.4283 106.135 22.6119 106.135 17.5682L106.143 17.5763Z" fill="white"/>
<path d="M122.436 25.2025V9.90186H134.747V25.2025H132.609V11.8548H124.573V25.2025H122.436Z" fill="white"/>
<path d="M138.239 25.2025V9.90186H148.845V11.8386H140.376V16.4789H148.502V18.4156H140.376V23.2818H149.343V25.2186H138.239V25.2025Z" fill="white"/>
<path d="M163.889 28.6725V25.2025H151.807V9.90186H153.944V23.2495H161.589V9.90186H163.726V23.2495H165.913V28.6725H163.889Z" fill="white"/>
<path d="M168.173 25.2025V9.90186H180.484V25.2025H178.347V11.8548H170.31V25.2025H168.173Z" fill="white"/>
<path d="M183.968 25.2025V9.90186H191.89C194.647 9.90186 196.418 11.5481 196.418 14.3161C196.418 17.0841 194.549 18.8433 191.637 18.8433H186.105V25.2105H183.968V25.2025ZM186.105 16.9227H191.588C193.366 16.9227 194.207 15.914 194.207 14.3323C194.207 12.7505 193.342 11.8144 191.523 11.8144H186.105V16.9227Z" fill="white"/>
<path d="M198.205 17.552C198.205 12.8231 200.848 9.67578 205.466 9.67578C210.083 9.67578 212.702 12.8473 212.702 17.552C212.702 22.2568 210.059 25.4283 205.441 25.4283C200.823 25.4283 198.205 22.2568 198.205 17.552ZM210.467 17.552C210.467 13.8399 208.558 11.5399 205.441 11.5399C202.325 11.5399 200.432 13.8157 200.432 17.552C200.432 21.2884 202.341 23.5641 205.458 23.5641C208.574 23.5641 210.467 21.2884 210.467 17.552Z" fill="white"/>
<path d="M215.313 25.2025V9.90186H225.919V11.8386H217.451V16.4789H225.576V18.4156H217.451V23.2818H226.417V25.2186H215.313V25.2025Z" fill="white"/>
<path d="M228.881 25.2025V9.90186H231.018V16.3417H235.612C236.974 16.3417 237.431 15.6477 237.455 14.5421L237.521 12.2906C237.57 10.959 238.092 9.90186 239.911 9.90186H241.779V11.7499L240.417 11.7983C239.821 11.8225 239.601 12 239.552 12.6053L239.438 14.6066C239.373 15.7526 238.957 16.5676 237.823 17.0841V17.1971C239.03 17.536 239.83 18.1897 239.87 19.7391L239.936 22.5313C239.96 23.185 240.278 23.3867 240.776 23.4109L242.342 23.4755V25.2105H240.344C238.842 25.2105 237.912 24.8474 237.863 22.8218L237.814 20.2314C237.79 18.569 236.95 18.2462 235.603 18.2462H231.01V25.2025H228.873H228.881Z" fill="white"/>
<path d="M248.714 25.2022V11.8303H243.574V9.89355H256V11.8303H250.86V25.2022H248.722H248.714Z" fill="white"/>
</g>
<defs>
<clipPath id="clip0_165_6839">
<rect width="256" height="36" fill="white"/>
</clipPath>
</defs>
</svg>
